<?xml version="1.0" encoding="utf-8"?><!-- Uploaded to: SVG Repo, www.svgrepo.com, Generator: SVG Repo Mixer Tools -->
<svg width="800px" height="800px" viewBox="0 0 24 24" fill="none" xmlns="http://www.w3.org/2000/svg">
<path d="M2 3C2 2.44772 2.44772 2 3 2C3.55228 2 4 2.44772 4 3V6.14371C4.84614 5.32788 5.74982 4.49767 6.725 3.81051C8.19885 2.77197 9.91151 2 12 2C17.5228 2 22 6.47715 22 12C22 17.5228 17.5228 22 12 22C7.64437 22 3.94159 19.2159 2.56928 15.3332C2.38523 14.8125 2.65816 14.2412 3.17887 14.0572C3.69959 13.8731 4.27091 14.146 4.45496 14.6668C5.55366 17.7753 8.51831 20 12 20C16.4183 20 20 16.4183 20 12C20 7.58172 16.4183 4 12 4C10.4456 4 9.12901 4.56319 7.87701 5.4454C7.03861 6.03618 6.26292 6.74327 5.47581 7.5H8.5C9.05228 7.5 9.5 7.94772 9.5 8.5C9.5 9.05228 9.05228 9.5 8.5 9.5H3C2.44772 9.5 2 9.05228 2 8.5V3Z" fill="#000000"/>
</svg>