<?xml version="1.0" encoding="iso-8859-1"?>
<!-- Uploaded to: SVG Repo, www.svgrepo.com, Generator: SVG Repo Mixer Tools -->
<svg fill="#807570" height="800px" width="800px" version="1.1" id="Capa_1" xmlns="http://www.w3.org/2000/svg" xmlns:xlink="http://www.w3.org/1999/xlink" 
	 viewBox="0 0 29.107 29.107" xml:space="preserve">
<g>
	<g id="c198_half_moon">
		<path d="M29.105,14.552c0-0.03-0.004-0.06-0.004-0.092C29.054,6.481,22.584,0.027,14.6,0.002C14.585,0.002,14.569,0,14.556,0
			h-0.002l0,0C6.547,0,0.051,6.47,0.005,14.468c0,0.027-0.004,0.053-0.004,0.084v0.002l0,0c0,8.037,6.517,14.553,14.553,14.553l0,0
			h0.002c0.014,0,0.029-0.003,0.044-0.003c8.016-0.025,14.507-6.529,14.507-14.55l0,0L29.105,14.552L29.105,14.552z M14.556,2.079
			c6.877,0,12.473,5.596,12.473,12.473c0,6.876-5.596,12.476-12.473,12.476V2.079z"/>
	</g>
	<g id="Capa_1_271_">
	</g>
</g>
</svg>