<?xml version="1.0" encoding="utf-8"?><!-- Uploaded to: SVG Repo, www.svgrepo.com, Generator: SVG Repo Mixer Tools -->
<svg width="800px" height="800px" viewBox="0 0 24 24" fill="none" xmlns="http://www.w3.org/2000/svg">
<path d="M6.29289 8.70711C6.68342 9.09763 7.31658 9.09763 7.70711 8.70711L11 5.41421L11 16C11 16.5523 11.4477 17 12 17C12.5523 17 13 16.5523 13 16L13 5.41421L16.2929 8.70711C16.6834 9.09763 17.3166 9.09763 17.7071 8.70711C18.0976 8.31658 18.0976 7.68342 17.7071 7.29289L12.7071 2.29289C12.3166 1.90237 11.6834 1.90237 11.2929 2.29289L6.29289 7.29289C5.90237 7.68342 5.90237 8.31658 6.29289 8.70711Z" fill="#000000"/>
<path d="M4 22C3.44772 22 3 21.5523 3 21C3 20.4477 3.44772 20 4 20H20C20.5523 20 21 20.4477 21 21C21 21.5523 20.5523 22 20 22H4Z" fill="#000000"/>
</svg>