<?xml version="1.0" encoding="utf-8"?><!-- Uploaded to: SVG Repo, www.svgrepo.com, Generator: SVG Repo Mixer Tools -->
<svg width="800px" height="800px" viewBox="0 0 24 24" fill="none" xmlns="http://www.w3.org/2000/svg">
<path d="M3 4C3 3.44772 3.44771 3 4 3C4.55229 3 5 3.44772 5 4L5 11C5 11.7956 5.31607 12.5587 5.87868 13.1213C6.44129 13.6839 7.20435 14 8 14H17.5858L14.2929 10.7071C13.9024 10.3166 13.9024 9.68342 14.2929 9.29289C14.6834 8.90237 15.3166 8.90237 15.7071 9.29289L20.7071 14.2929C21.0976 14.6834 21.0976 15.3166 20.7071 15.7071L15.7071 20.7071C15.3166 21.0976 14.6834 21.0976 14.2929 20.7071C13.9024 20.3166 13.9024 19.6834 14.2929 19.2929L17.5858 16H8C6.67392 16 5.40215 15.4732 4.46447 14.5355C3.52678 13.5979 3 12.3261 3 11V4Z" fill="#000000"/>
</svg>