<?xml version="1.0" encoding="utf-8"?><!-- Uploaded to: SVG Repo, www.svgrepo.com, Generator: SVG Repo Mixer Tools -->
<svg width="800px" height="800px" viewBox="0 0 24 24" fill="none" xmlns="http://www.w3.org/2000/svg">
<path d="M4.71072 5.68255C4.32019 5.29203 3.68703 5.29203 3.2965 5.68255C2.90598 6.07308 2.90598 6.70624 3.2965 7.09676L7.47854 11.2788C7.86906 11.6693 7.86907 12.3025 7.47854 12.693L3.29289 16.8787C2.90237 17.2692 2.90237 17.9024 3.29289 18.2929C3.68342 18.6834 4.31658 18.6834 4.70711 18.2929L9.59747 13.4025C10.3782 12.6217 10.3786 11.3559 9.59816 10.5748L4.71072 5.68255Z" fill="#0F0F0F"/>
<path d="M19.312 18.2929C19.7025 18.6834 20.3357 18.6834 20.7262 18.2929C21.1167 17.9023 21.1167 17.2692 20.7262 16.8787L16.5442 12.6966C16.1536 12.3061 16.1536 11.6729 16.5442 11.2824L20.7298 7.09676C21.1203 6.70623 21.1203 6.07307 20.7298 5.68254C20.3393 5.29202 19.7061 5.29202 19.3156 5.68254L14.4252 10.5729C13.6445 11.3537 13.6441 12.6195 14.4245 13.4006L19.312 18.2929Z" fill="#0F0F0F"/>
</svg>