<?xml version="1.0" encoding="utf-8"?><!-- Uploaded to: SVG Repo, www.svgrepo.com, Generator: SVG Repo Mixer Tools -->
<svg width="800px" height="800px" viewBox="0 0 24 24" fill="none" xmlns="http://www.w3.org/2000/svg">
<path d="M18 3.99997C18 3.44769 17.5523 2.99998 17 2.99998C16.4477 2.99999 16 3.44771 16 4L16.0002 17.586L13.7071 15.2929C13.3166 14.9024 12.6834 14.9024 12.2929 15.2929C11.9024 15.6834 11.9024 16.3166 12.2929 16.7071L16.2929 20.7071C16.4163 20.8305 16.5639 20.9149 16.7204 20.9603C16.7777 20.977 16.837 20.9886 16.898 20.9948C16.9316 20.9982 16.9657 21 17.0002 21C17.018 21 17.0357 20.9995 17.0533 20.9986C17.3143 20.985 17.5488 20.8712 17.7192 20.695L21.7071 16.7071C22.0976 16.3166 22.0976 15.6834 21.7071 15.2929C21.3166 14.9024 20.6834 14.9024 20.2929 15.2929L18.0002 17.5856L18 3.99997Z" fill="#000000"/>
<path d="M8 20L8 6.41421L10.2929 8.7071C10.6834 9.09763 11.3166 9.09763 11.7071 8.7071C12.0976 8.31658 12.0976 7.68341 11.7071 7.29289L7.70711 3.29289C7.31658 2.90237 6.68342 2.90237 6.29289 3.29289L2.29289 7.29289C1.90237 7.68341 1.90237 8.31658 2.29289 8.7071C2.68342 9.09763 3.31658 9.09763 3.70711 8.7071L6 6.41421L6 20C6 20.5523 6.44772 21 7 21C7.55229 21 8 20.5523 8 20Z" fill="#000000"/>
</svg>