<?xml version="1.0" encoding="utf-8"?><!-- Uploaded to: SVG Repo, www.svgrepo.com, Generator: SVG Repo Mixer Tools -->
<svg width="800px" height="800px" viewBox="0 0 24 24" fill="none" xmlns="http://www.w3.org/2000/svg">
<path d="M15.2929 10.2929C14.9024 10.6834 14.9024 11.3166 15.2929 11.7071C15.6834 12.0976 16.3166 12.0976 16.7071 11.7071L20.7071 7.70711C20.8306 7.58361 20.9151 7.43586 20.9604 7.27919C20.9779 7.2191 20.9895 7.1577 20.9954 7.09585C20.9976 7.07319 20.999 7.05048 20.9996 7.02774C21.0002 7.00709 21.0001 6.98642 20.9994 6.96578C20.9905 6.6971 20.8755 6.45528 20.695 6.28079L16.7071 2.29289C16.3166 1.90237 15.6834 1.90237 15.2929 2.29289C14.9024 2.68342 14.9024 3.31658 15.2929 3.70711L17.5856 5.99981L3.99999 5.99999C3.4477 5.99999 2.99999 6.44772 3 7C3.00001 7.55228 3.44773 7.99999 4.00001 7.99999L17.586 7.99981L15.2929 10.2929Z" fill="#000000"/>
<path d="M20 16L6.41423 16L8.70712 13.7071C9.09764 13.3166 9.09764 12.6834 8.70712 12.2929C8.3166 11.9024 7.68343 11.9024 7.29291 12.2929L3.29291 16.2929C2.90238 16.6834 2.90238 17.3166 3.29291 17.7071L7.29291 21.7071C7.68343 22.0976 8.3166 22.0976 8.70712 21.7071C9.09764 21.3166 9.09764 20.6834 8.70712 20.2929L6.41423 18L20 18C20.5523 18 21 17.5523 21 17C21 16.4477 20.5523 16 20 16Z" fill="#000000"/>
</svg>