<?xml version="1.0" encoding="utf-8"?><!-- Uploaded to: SVG Repo, www.svgrepo.com, Generator: SVG Repo Mixer Tools -->
<svg width="800px" height="800px" viewBox="0 0 24 24" fill="none" xmlns="http://www.w3.org/2000/svg">
<path d="M21.9937 10.8901C21.4409 5.88912 17.2027 2 12.0547 2C9.81822 2 8.01448 2.88495 6.47371 4.0323C5.62719 4.66267 4.81957 5.40719 4.05469 6.14376V3C4.05469 2.44771 3.60697 2 3.05469 2C2.5024 2 2.05469 2.44771 2.05469 3V8.5C2.05469 8.6503 2.08784 8.79285 2.14724 8.92074C2.17607 8.98289 2.21166 9.04275 2.25404 9.09924C2.2869 9.14307 2.32328 9.18412 2.36276 9.22197C2.44755 9.30337 2.54344 9.36702 2.64559 9.41276C2.77047 9.46882 2.90894 9.5 3.05469 9.5H8.55469C9.10697 9.5 9.55469 9.05228 9.55469 8.5C9.55469 7.94772 9.10697 7.5 8.55469 7.5H5.53039C6.22662 6.82979 6.91757 6.19538 7.66822 5.6364C9.00068 4.64418 10.3927 4 12.0547 4C16.1719 4 19.5638 7.11098 20.0058 11.1099C20.0665 11.6588 20.5607 12.0546 21.1097 11.9939C21.6586 11.9333 22.0544 11.4391 21.9937 10.8901Z" fill="#000000"/>
<path d="M2.06083 13.1099C2.61366 18.1109 6.85189 22 11.9998 22C14.2363 22 16.0401 21.115 17.5809 19.9677C18.4274 19.3373 19.235 18.5928 19.9999 17.8562V21C19.9999 21.5523 20.4476 22 20.9999 22C21.5522 22 21.9999 21.5523 21.9999 21V15.5C21.9999 15.3497 21.9667 15.2071 21.9073 15.0793C21.8785 15.0171 21.8429 14.9572 21.8005 14.9008C21.7677 14.8569 21.7313 14.8159 21.6918 14.778C21.607 14.6966 21.5111 14.633 21.409 14.5872C21.2841 14.5312 21.1456 14.5 20.9999 14.5H15.4999C14.9476 14.5 14.4999 14.9477 14.4999 15.5C14.4999 16.0523 14.9476 16.5 15.4999 16.5H18.5242C17.8279 17.1702 17.137 17.8046 16.3863 18.3636C15.0539 19.3558 13.6619 20 11.9998 20C7.88269 20 4.49078 16.889 4.04872 12.8901C3.98804 12.3412 3.49384 11.9454 2.9449 12.0061C2.39596 12.0667 2.00015 12.5609 2.06083 13.1099Z" fill="#000000"/>
</svg>