<?xml version="1.0" encoding="utf-8"?><!-- Uploaded to: SVG Repo, www.svgrepo.com, Generator: SVG Repo Mixer Tools -->
<svg width="800px" height="800px" viewBox="0 0 24 24" fill="none" xmlns="http://www.w3.org/2000/svg">
<path d="M4 2C3.44772 2 3 2.44772 3 3C3 3.55228 3.44772 4 4 4H20C20.5523 4 21 3.55228 21 3C21 2.44772 20.5523 2 20 2H4Z" fill="#000000"/>
<path d="M7.70711 15.2929L11 18.5858L11 8C11 7.44771 11.4477 7 12 7C12.5523 7 13 7.44771 13 8L13 18.5858L16.2929 15.2929C16.6834 14.9024 17.3166 14.9024 17.7071 15.2929C18.0976 15.6834 18.0976 16.3166 17.7071 16.7071L12.7071 21.7071C12.3166 22.0976 11.6834 22.0976 11.2929 21.7071L6.29289 16.7071C5.90237 16.3166 5.90237 15.6834 6.29289 15.2929C6.68342 14.9024 7.31658 14.9024 7.70711 15.2929Z" fill="#000000"/>
</svg>