<?xml version="1.0" encoding="utf-8"?><!-- Uploaded to: SVG Repo, www.svgrepo.com, Generator: SVG Repo Mixer Tools -->
<svg width="800px" height="800px" viewBox="0 0 24 24" fill="none" xmlns="http://www.w3.org/2000/svg">
<path fill-rule="evenodd" clip-rule="evenodd" d="M9.15023 3.01742C9.13605 3.03985 9.12278 3.0676 9.11298 3.09958C9.11044 3.10789 9.10778 3.11617 9.10502 3.12442L8.36963 5.31787C8.23301 5.72537 7.85129 6 7.4215 6H3C2.44772 6 2 6.44772 2 7V20C2 20.5523 2.44771 21 3 21H21C21.5523 21 22 20.5523 22 20V7C22 6.44771 21.5523 6 21 6H16.331C15.9011 6 15.5194 5.72528 15.3828 5.31769L14.6479 3.12423C14.6452 3.11605 14.6425 3.10783 14.64 3.09958C14.6302 3.0676 14.6169 3.03985 14.6027 3.01742C14.5986 3.01089 14.5946 3.00509 14.5908 3H9.16221C9.1584 3.00509 9.15437 3.01089 9.15023 3.01742ZM7.20525 2.49911C7.43535 1.76672 8.10563 1 9.06392 1H14.6891C15.6474 1 16.3177 1.76679 16.5478 2.49922L17.0506 4H21C22.6569 4 24 5.34315 24 7V20C24 21.6569 22.6569 23 21 23H3C1.34315 23 0 21.6569 0 20V7C0 5.34315 1.34315 4 3 4H6.70206L7.20525 2.49911ZM7 13C7 10.2386 9.23858 8 12 8C14.7614 8 17 10.2386 17 13C17 15.7614 14.7614 18 12 18C9.23858 18 7 15.7614 7 13ZM12 10C10.3431 10 9 11.3431 9 13C9 14.6569 10.3431 16 12 16C13.6569 16 15 14.6569 15 13C15 11.3431 13.6569 10 12 10Z" fill="#000000"/>
</svg>