<?xml version="1.0" encoding="utf-8"?><!-- Uploaded to: SVG Repo, www.svgrepo.com, Generator: SVG Repo Mixer Tools -->
<svg width="800px" height="800px" viewBox="0 0 24 24" fill="none" xmlns="http://www.w3.org/2000/svg">
<path fill-rule="evenodd" clip-rule="evenodd" d="M12 1C11.7348 1 11.4804 1.10536 11.2929 1.29289C11.1054 1.48043 11 1.73478 11 2V12C11 12.5523 11.4477 13 12 13H22C22.5523 13 23 12.5523 23 12C23 10.5555 22.7155 9.12506 22.1627 7.79048C21.6099 6.4559 20.7996 5.24327 19.7782 4.22183C18.7567 3.20038 17.5441 2.39013 16.2095 1.83733C14.8749 1.28452 13.4445 1 12 1ZM13 11V3.05573C13.8386 3.14949 14.6615 3.3609 15.4442 3.68508C16.5361 4.13738 17.5282 4.80031 18.364 5.63604C19.1997 6.47177 19.8626 7.46392 20.3149 8.55585C20.6391 9.33849 20.8505 10.1614 20.9443 11H13Z" fill="#000000"/>
<path d="M8.33325 5.45495C8.85396 5.27091 9.12689 4.69958 8.94284 4.17887C8.75879 3.65815 8.18747 3.38523 7.66675 3.56927C3.78413 4.94158 1 8.64437 1 13C1 18.5228 5.47715 23 11 23C15.3556 23 19.0584 20.2159 20.4307 16.3332C20.6148 15.8125 20.3418 15.2412 19.8211 15.0571C19.3004 14.8731 18.7291 15.146 18.545 15.6667C17.4463 18.7753 14.4817 21 11 21C6.58172 21 3 17.4183 3 13C3 9.51831 5.22472 6.55366 8.33325 5.45495Z" fill="#000000"/>
</svg>