<?xml version="1.0" encoding="utf-8"?><!-- Uploaded to: SVG Repo, www.svgrepo.com, Generator: SVG Repo Mixer Tools -->
<svg width="800px" height="800px" viewBox="0 0 24 24" fill="none" xmlns="http://www.w3.org/2000/svg">
<path d="M13 21C13 21.5523 13.4477 22 14 22C14.5523 22 15 21.5523 15 21V3C15 2.44772 14.5523 2 14 2C13.4477 2 13 2.44772 13 3V21Z" fill="#000000"/>
<path d="M5 21C5 21.5523 5.44772 22 6 22C6.55228 22 7 21.5523 7 21V11C7 10.4477 6.55228 10 6 10C5.44772 10 5 10.4477 5 11V21Z" fill="#000000"/>
<path d="M10 22C9.44772 22 9 21.5523 9 21V13C9 12.4477 9.44772 12 10 12C10.5523 12 11 12.4477 11 13V21C11 21.5523 10.5523 22 10 22Z" fill="#000000"/>
<path d="M17 21C17 21.5523 17.4477 22 18 22C18.5523 22 19 21.5523 19 21V7C19 6.44772 18.5523 6 18 6C17.4477 6 17 6.44772 17 7V21Z" fill="#000000"/>
</svg>