<?xml version="1.0" encoding="utf-8"?><!-- Uploaded to: SVG Repo, www.svgrepo.com, Generator: SVG Repo Mixer Tools -->
<svg width="800px" height="800px" viewBox="0 0 24 24" fill="none" xmlns="http://www.w3.org/2000/svg">
<path d="M11 4C8.37318 4 6.2324 5.99599 6.01793 8.51595C5.98608 8.89012 5.74729 9.21492 5.39963 9.35691C3.3976 10.1746 2 12.1199 2 14.3783C2 16.2952 3.00543 17.9848 4.53512 18.9537C5.00168 19.2493 5.14031 19.8671 4.84477 20.3336C4.54923 20.8002 3.93143 20.9388 3.46488 20.6433C1.38625 19.3266 0 17.0152 0 14.3783C0 11.4804 1.67256 8.9777 4.10178 7.75216C4.66997 4.47797 7.54913 2 11 2C13.8191 2 16.2533 3.65235 17.362 6.03971C19.4286 6.43792 21 8.24044 21 10.4206C21 10.7714 20.959 11.1133 20.8815 11.4415C22.7225 12.3197 24 14.186 24 16.3571C24 18.2066 23.0706 19.8374 21.6596 20.8205C21.2065 21.1362 20.5832 21.0248 20.2675 20.5717C19.9518 20.1185 20.0632 19.4952 20.5163 19.1795C21.4183 18.5511 22 17.5193 22 16.3571C22 14.7492 20.882 13.3863 19.3555 13.0085C19.056 12.9344 18.8075 12.7261 18.6821 12.4442C18.5567 12.1623 18.5684 11.8383 18.7139 11.5662C18.8965 11.2247 19 10.8359 19 10.4206C19 9.10788 17.9516 8.0197 16.6155 7.96031C16.2093 7.94225 15.8545 7.68006 15.7179 7.29708C15.0347 5.38045 13.1833 4 11 4Z" fill="#000000"/>
<path d="M7.29289 16.7071C7.68342 17.0976 8.31658 17.0976 8.70711 16.7071L11 14.4142V22C11 22.5523 11.4477 23 12 23C12.5523 23 13 22.5523 13 22V14.4142L15.2929 16.7071C15.6834 17.0976 16.3166 17.0976 16.7071 16.7071C17.0976 16.3166 17.0976 15.6834 16.7071 15.2929L12.7071 11.2929C12.3166 10.9024 11.6834 10.9024 11.2929 11.2929L7.29289 15.2929C6.90237 15.6834 6.90237 16.3166 7.29289 16.7071Z" fill="#000000"/>
</svg>