<?xml version="1.0" encoding="utf-8"?>
<!-- Uploaded to: SVG Repo, www.svgrepo.com, Generator: SVG Repo Mixer Tools -->
<svg width="800px" height="800px" viewBox="0 0 24 24" fill="none" xmlns="http://www.w3.org/2000/svg">
<g clip-path="url(#clip0_1261_126198)">
<path fill-rule="evenodd" clip-rule="evenodd" d="M23.7071 1.70711C24.0976 1.31658 24.0976 0.683417 23.7071 0.292893C23.3166 -0.0976311 22.6834 -0.0976311 22.2929 0.292893L17.0715 5.51431C15.8637 3.41492 13.598 2 11 2C7.53833 2 4.66425 4.51215 4.10038 7.81322C1.66822 9.05213 1.49012e-08 11.5802 1.49012e-08 14.5C1.49012e-08 16.7209 0.965858 18.7158 2.4977 20.0881L0.292893 22.2929C-0.0976311 22.6834 -0.0976311 23.3166 0.292893 23.7071C0.683417 24.0976 1.31658 24.0976 1.70711 23.7071L4.70515 20.7091C4.71506 20.6996 4.7248 20.6898 4.73437 20.6798L17.6691 7.7451C17.674 7.74027 17.6789 7.73539 17.6838 7.73045L23.7071 1.70711ZM15.5847 7.00107C14.8129 5.23346 13.0494 4 11 4C8.38231 4 6.23365 6.01228 6.018 8.57314C5.98658 8.94633 5.74927 9.27068 5.40309 9.41357C3.40393 10.2388 2 12.2066 2 14.5C2 16.167 2.74108 17.6614 3.91472 18.6711L15.5847 7.00107Z" fill="#000000"/>
<path d="M20.96 9.89844C20.8867 9.35104 20.3836 8.96669 19.8362 9.03998C19.2888 9.11326 18.9044 9.61643 18.9777 10.1638C18.9924 10.2733 19 10.3855 19 10.5C19 10.9234 18.8955 11.3195 18.7118 11.6668C18.5681 11.9384 18.5573 12.2611 18.6825 12.5418C18.8076 12.8224 19.0549 13.03 19.3531 13.1045C20.8742 13.485 22 14.8623 22 16.5C22 18.3008 20.6391 19.7852 18.8902 19.9786C18.8482 19.9832 18.8071 19.9904 18.767 20H9C8.44772 20 8 20.4477 8 21C8 21.5523 8.44772 22 9 22H19C19.1273 22 19.249 21.9762 19.361 21.9329C21.99 21.5191 24 19.2449 24 16.5C24 14.3137 22.7251 12.427 20.879 11.5401C20.9581 11.2058 21 10.8575 21 10.5C21 10.2965 20.9864 10.0957 20.96 9.89844Z" fill="#000000"/>
</g>
<defs>
<clipPath id="clip0_1261_126198">
<rect width="24" height="24" fill="white"/>
</clipPath>
</defs>
</svg>