<?xml version="1.0" encoding="utf-8"?><!-- Uploaded to: SVG Repo, www.svgrepo.com, Generator: SVG Repo Mixer Tools -->
<svg width="800px" height="800px" viewBox="0 0 24 24" fill="none" xmlns="http://www.w3.org/2000/svg">
<path fill-rule="evenodd" clip-rule="evenodd" d="M11 4C8.38231 4 6.23365 6.01228 6.018 8.57314C5.98658 8.94633 5.74927 9.27068 5.40309 9.41357C3.40393 10.2388 2 12.2066 2 14.5C2 17.5376 4.46243 20 7.5 20H18.767C18.8071 19.9904 18.8482 19.9832 18.8902 19.9786C20.6391 19.7852 22 18.3008 22 16.5C22 14.8623 20.8742 13.485 19.3531 13.1045C19.0549 13.03 18.8076 12.8224 18.6825 12.5418C18.5573 12.2611 18.5681 11.9384 18.7118 11.6668C18.8955 11.3195 19 10.9234 19 10.5C19 9.15784 17.9419 8.06227 16.615 8.00265C16.2078 7.98435 15.8524 7.72071 15.7168 7.33629C15.0308 5.39137 13.1766 4 11 4ZM4.10038 7.81322C4.66425 4.51215 7.53833 2 11 2C13.8263 2 16.2594 3.67456 17.3649 6.0832C19.4367 6.48665 21 8.31054 21 10.5C21 10.8575 20.9581 11.2058 20.879 11.5401C22.7251 12.427 24 14.3137 24 16.5C24 19.2449 21.99 21.5191 19.361 21.9329C19.249 21.9762 19.1273 22 19 22H7.5C3.35786 22 0 18.6421 0 14.5C0 11.5802 1.66822 9.05213 4.10038 7.81322Z" fill="#000000"/>
</svg>