<?xml version="1.0" encoding="utf-8"?><!-- Uploaded to: SVG Repo, www.svgrepo.com, Generator: SVG Repo Mixer Tools -->
<svg width="800px" height="800px" viewBox="0 0 24 24" fill="none" xmlns="http://www.w3.org/2000/svg">
<path fill-rule="evenodd" clip-rule="evenodd" d="M17.1887 8.07626C17.3085 7.71693 17.215 7.32076 16.9471 7.05293C16.6793 6.7851 16.2831 6.69158 15.9238 6.81135L9.56381 8.93135C9.2652 9.03089 9.03089 9.2652 8.93135 9.56381L6.81135 15.9238C6.69158 16.2831 6.7851 16.6793 7.05293 16.9471C7.32076 17.215 7.71693 17.3085 8.07626 17.1887L14.4363 15.0687C14.7349 14.9692 14.9692 14.7349 15.0687 14.4363L17.1887 8.07626ZM9.34118 14.6589L10.6706 10.6706L14.6589 9.34118L13.3295 13.3295L9.34118 14.6589Z" fill="#000000"/>
<path fill-rule="evenodd" clip-rule="evenodd" d="M12 1C5.92487 1 1 5.92487 1 12C1 18.0751 5.92487 23 12 23C18.0751 23 23 18.0751 23 12C23 5.92487 18.0751 1 12 1ZM3 12C3 7.02944 7.02944 3 12 3C16.9706 3 21 7.02944 21 12C21 16.9706 16.9706 21 12 21C7.02944 21 3 16.9706 3 12Z" fill="#000000"/>
</svg>