<?xml version="1.0" encoding="utf-8"?><!-- Uploaded to: SVG Repo, www.svgrepo.com, Generator: SVG Repo Mixer Tools -->
<svg width="800px" height="800px" viewBox="0 0 24 24" fill="none" xmlns="http://www.w3.org/2000/svg">
<path d="M12 20C12.8284 20 13.5 19.3284 13.5 18.5C13.5 17.6716 12.8284 17 12 17C11.1716 17 10.5 17.6716 10.5 18.5C10.5 19.3284 11.1716 20 12 20Z" fill="#000000"/>
<path fill-rule="evenodd" clip-rule="evenodd" d="M3 20C3 21.7781 4.60067 23 6.28571 23H17.7143C19.3993 23 21 21.7781 21 20V4C21 2.22189 19.3993 1 17.7143 1H6.28571C4.60067 1 3 2.22189 3 4V20ZM6.28571 21C5.44603 21 5 20.431 5 20V4C5 3.56897 5.44603 3 6.28571 3H17.7143C18.554 3 19 3.56897 19 4V20C19 20.431 18.554 21 17.7143 21H6.28571Z" fill="#000000"/>
</svg>