<?xml version="1.0" encoding="utf-8"?><!-- Uploaded to: SVG Repo, www.svgrepo.com, Generator: SVG Repo Mixer Tools -->
<svg width="800px" height="800px" viewBox="-0.5 0 25 25" fill="none" xmlns="http://www.w3.org/2000/svg">
<path fill-rule="evenodd" clip-rule="evenodd" d="M12 1.5C5.92487 1.5 1 6.42487 1 12.5C1 18.5751 5.92487 23.5 12 23.5C18.0751 23.5 23 18.5751 23 12.5C23 6.42487 18.0751 1.5 12 1.5ZM9.7257 3.78983C6.1688 4.71598 3.46801 7.76324 3.05493 11.5H7.05009C7.27429 8.73682 8.1991 6.08442 9.7257 3.78983ZM14.2743 3.78983C15.8009 6.08442 16.7257 8.73682 16.9499 11.5H20.9451C20.532 7.76324 17.8312 4.71598 14.2743 3.78983ZM14.9424 11.5C14.6912 8.78682 13.6697 6.20192 12 4.05078C10.3303 6.20192 9.30878 8.78682 9.05759 11.5H14.9424ZM9.05759 13.5H14.9424C14.6912 16.2132 13.6697 18.7981 12 20.9492C10.3303 18.7981 9.30879 16.2132 9.05759 13.5ZM7.05009 13.5H3.05493C3.46801 17.2368 6.16881 20.284 9.72572 21.2102C8.19911 18.9156 7.2743 16.2632 7.05009 13.5ZM14.2743 21.2102C15.8009 18.9156 16.7257 16.2632 16.9499 13.5H20.9451C20.532 17.2368 17.8312 20.284 14.2743 21.2102Z" fill="#000000"/>
</svg>