<?xml version="1.0" encoding="utf-8"?><!-- Uploaded to: SVG Repo, www.svgrepo.com, Generator: SVG Repo Mixer Tools -->
<svg width="800px" height="800px" viewBox="0 0 24 24" fill="none" xmlns="http://www.w3.org/2000/svg">
<path fill-rule="evenodd" clip-rule="evenodd" d="M12 4C9.87827 4 7.84344 4.84285 6.34315 6.34315C4.84285 7.84344 4 9.87827 4 12H6.6C7.48642 12 8.34576 12.3349 8.98671 12.9453C9.62932 13.5573 10 14.3981 10 15.2857V18.7143C10 19.6019 9.62932 20.4427 8.98671 21.0547C8.34576 21.6651 7.48642 22 6.6 22H5.4C4.51358 22 3.65424 21.6651 3.01329 21.0547C2.37068 20.4427 2 19.6019 2 18.7143V12C2 9.34784 3.05357 6.8043 4.92893 4.92893C6.8043 3.05357 9.34784 2 12 2C14.6522 2 17.1957 3.05357 19.0711 4.92893C20.9464 6.8043 22 9.34784 22 12V18.7143C22 19.6019 21.6293 20.4427 20.9867 21.0547C20.3458 21.6651 19.4864 22 18.6 22H17.4C16.5136 22 15.6542 21.6651 15.0133 21.0547C14.3707 20.4427 14 19.6019 14 18.7143V15.2857C14 14.3981 14.3707 13.5573 15.0133 12.9453C15.6542 12.3349 16.5136 12 17.4 12H20C20 9.87827 19.1571 7.84344 17.6569 6.34315C16.1566 4.84285 14.1217 4 12 4ZM20 14H17.4C17.0134 14 16.6518 14.1467 16.3926 14.3936C16.135 14.6389 16 14.9609 16 15.2857V18.7143C16 19.0391 16.135 19.3611 16.3926 19.6064C16.6518 19.8533 17.0134 20 17.4 20H18.6C18.9866 20 19.3482 19.8533 19.6074 19.6064C19.865 19.3611 20 19.0391 20 18.7143V14ZM4 14H6.6C6.98662 14 7.34818 14.1467 7.6074 14.3936C7.86497 14.6389 8 14.9609 8 15.2857V18.7143C8 19.0391 7.86497 19.3611 7.6074 19.6064C7.34818 19.8533 6.98662 20 6.6 20H5.4C5.01338 20 4.65182 19.8533 4.3926 19.6064C4.13503 19.3611 4 19.0391 4 18.7143V14Z" fill="#000000"/>
</svg>