<?xml version="1.0" encoding="utf-8"?><!-- Uploaded to: SVG Repo, www.svgrepo.com, Generator: SVG Repo Mixer Tools -->
<svg width="800px" height="800px" viewBox="0 0 24 24" fill="none" xmlns="http://www.w3.org/2000/svg">
<path fill-rule="evenodd" clip-rule="evenodd" d="M12 0C7.58172 0 4 3.58172 4 8C4 10.0289 4.75527 11.8814 6 13.2916V23C6 23.3565 6.18976 23.686 6.49807 23.8649C6.80639 24.0438 7.18664 24.0451 7.49614 23.8682L12 21.2946L16.5039 23.8682C16.8134 24.0451 17.1936 24.0438 17.5019 23.8649C17.8102 23.686 18 23.3565 18 23V13.2916C19.2447 11.8814 20 10.0289 20 8C20 3.58172 16.4183 0 12 0ZM6 8C6 4.68629 8.68629 2 12 2C15.3137 2 18 4.68629 18 8C18 11.3137 15.3137 14 12 14C8.68629 14 6 11.3137 6 8ZM16 14.9297C14.8233 15.6104 13.4571 16 12 16C10.5429 16 9.17669 15.6104 8 14.9297V21.2768L11.5039 19.2746C11.8113 19.0989 12.1887 19.0989 12.4961 19.2746L16 21.2768V14.9297Z" fill="#000000"/>
</svg>