<?xml version="1.0" encoding="utf-8"?><!-- Uploaded to: SVG Repo, www.svgrepo.com, Generator: SVG Repo Mixer Tools -->
<svg width="800px" height="800px" viewBox="0 0 24 24" fill="none" xmlns="http://www.w3.org/2000/svg">
<path fill-rule="evenodd" clip-rule="evenodd" d="M3 5.33333C3 4.04467 4.04467 3 5.33333 3H18.6667C19.9553 3 21 4.04467 21 5.33333V18.6667C21 19.9553 19.9553 21 18.6667 21H5.33333C4.04467 21 3 19.9553 3 18.6667V5.33333ZM5.33333 5C5.14924 5 5 5.14924 5 5.33333V18.6667C5 18.8508 5.14924 19 5.33333 19H18.6667C18.8508 19 19 18.8508 19 18.6667V5.33333C19 5.14924 18.8508 5 18.6667 5H5.33333Z" fill="#000000"/>
</svg>