<?xml version="1.0" encoding="utf-8"?><!-- Uploaded to: SVG Repo, www.svgrepo.com, Generator: SVG Repo Mixer Tools -->
<svg width="800px" height="800px" viewBox="0 0 24 24" fill="none" xmlns="http://www.w3.org/2000/svg">
<path fill-rule="evenodd" clip-rule="evenodd" d="M8.5 7.5C7.94772 7.5 7.5 7.94772 7.5 8.5V15.5C7.5 16.0523 7.94772 16.5 8.5 16.5H15.5C16.0523 16.5 16.5 16.0523 16.5 15.5V8.5C16.5 7.94772 16.0523 7.5 15.5 7.5H8.5ZM9.5 14.5V9.5H14.5V14.5H9.5Z" fill="#000000"/>
<path fill-rule="evenodd" clip-rule="evenodd" d="M12 1C5.92487 1 1 5.92487 1 12C1 18.0751 5.92487 23 12 23C18.0751 23 23 18.0751 23 12C23 5.92487 18.0751 1 12 1ZM3 12C3 7.02944 7.02944 3 12 3C16.9706 3 21 7.02944 21 12C21 16.9706 16.9706 21 12 21C7.02944 21 3 16.9706 3 12Z" fill="#000000"/>
</svg>