<?xml version="1.0" encoding="utf-8"?><!-- Uploaded to: SVG Repo, www.svgrepo.com, Generator: SVG Repo Mixer Tools -->
<svg width="800px" height="800px" viewBox="0 0 24 24" fill="none" xmlns="http://www.w3.org/2000/svg">
<path fill-rule="evenodd" clip-rule="evenodd" d="M12.5 3C7.8056 3 4.00002 6.80558 4.00002 11.5C4.00002 13.3106 4.56503 14.9863 5.52839 16.3642C5.65702 16.5482 5.72 16.7701 5.70721 16.9942C5.67939 17.4813 5.61054 18.0464 5.4806 18.6961C5.34675 19.3654 5.17843 19.9417 4.99863 20.4321L8.84213 19.4072C9.04566 19.3529 9.26113 19.3643 9.45781 19.4397C10.401 19.8013 11.4262 20 12.5 20C17.1944 20 21 16.1944 21 11.5C21 6.80558 17.1944 3 12.5 3ZM2.28337 21.3026C2.28497 21.3008 2.28815 21.2973 2.2928 21.292C2.30653 21.2764 2.3331 21.2451 2.36973 21.1972C2.44292 21.1015 2.55663 20.939 2.68837 20.7019C2.95112 20.2289 3.28993 19.4515 3.51944 18.3039C3.60229 17.8896 3.65453 17.5251 3.6852 17.2072C2.61921 15.5638 2.00002 13.6029 2.00002 11.5C2.00002 5.70101 6.70103 1 12.5 1C18.299 1 23 5.70101 23 11.5C23 17.299 18.299 22 12.5 22C11.2942 22 10.1339 21.7963 9.05302 21.4208L3.25769 22.9662C2.82058 23.0828 2.35966 22.8914 2.1337 22.4995C1.91001 22.1115 1.97175 21.6227 2.28337 21.3026Z" fill="#000000"/>
</svg>