<?xml version="1.0" encoding="utf-8"?><!-- Uploaded to: SVG Repo, www.svgrepo.com, Generator: SVG Repo Mixer Tools -->
<svg width="800px" height="800px" viewBox="0 0 24 24" fill="none" xmlns="http://www.w3.org/2000/svg">
<path d="M20.7071 3.29289C21.0976 3.68342 21.0976 4.31658 20.7071 4.70711L4.70711 20.7071C4.31658 21.0976 3.68342 21.0976 3.29289 20.7071C2.90237 20.3166 2.90237 19.6834 3.29289 19.2929L19.2929 3.29289C19.6834 2.90237 20.3166 2.90237 20.7071 3.29289Z" fill="#000000"/>
<path fill-rule="evenodd" clip-rule="evenodd" d="M4 6.5C4 4.567 5.567 3 7.5 3C9.433 3 11 4.567 11 6.5C11 8.433 9.433 10 7.5 10C5.567 10 4 8.433 4 6.5ZM7.5 5C6.67157 5 6 5.67157 6 6.5C6 7.32843 6.67157 8 7.5 8C8.32843 8 9 7.32843 9 6.5C9 5.67157 8.32843 5 7.5 5Z" fill="#000000"/>
<path fill-rule="evenodd" clip-rule="evenodd" d="M16.5 14C14.567 14 13 15.567 13 17.5C13 19.433 14.567 21 16.5 21C18.433 21 20 19.433 20 17.5C20 15.567 18.433 14 16.5 14ZM15 17.5C15 16.6716 15.6716 16 16.5 16C17.3284 16 18 16.6716 18 17.5C18 18.3284 17.3284 19 16.5 19C15.6716 19 15 18.3284 15 17.5Z" fill="#000000"/>
</svg>