<?xml version="1.0" encoding="utf-8"?><!-- Uploaded to: SVG Repo, www.svgrepo.com, Generator: SVG Repo Mixer Tools -->
<svg width="800px" height="800px" viewBox="0 0 24 24" fill="none" xmlns="http://www.w3.org/2000/svg">
<path d="M14.2681 9.82143C14.2375 9.79449 14.2086 9.76571 14.1815 9.73527C14.109 9.65384 14.0522 9.5634 14.0109 9.46783C13.9586 9.34705 13.9295 9.21391 13.9291 9.07402L13.9291 9.07104V3.07104C13.9291 2.51875 14.3768 2.07104 14.9291 2.07104C15.4814 2.07104 15.9291 2.51875 15.9291 3.07104V6.65679L21.293 1.29283C21.6836 0.902308 22.3167 0.902308 22.7073 1.29283C23.0978 1.68336 23.0978 2.31652 22.7073 2.70705L17.3433 8.07104H20.9291C21.4814 8.07104 21.9291 8.51875 21.9291 9.07104C21.9291 9.62332 21.4814 10.071 20.9291 10.071H14.9291C14.7814 10.071 14.6412 10.039 14.5151 9.98159C14.4271 9.94161 14.3438 9.88822 14.2681 9.82143Z" fill="#000000"/>
<path fill-rule="evenodd" clip-rule="evenodd" d="M2.01192 5.60229C1.83312 3.50022 3.61574 1.99999 5.51161 1.99999H7.88594C9.01915 1.99999 10.0411 2.68181 10.4762 3.72818L11.6459 6.54151C12.0464 7.50456 11.8795 8.61026 11.2126 9.41218L9.96021 10.9182C10.7683 12.1458 11.7862 13.2527 12.9455 14.169L14.5827 12.8018C15.386 12.1311 16.4959 11.9632 17.4616 12.3664L20.2638 13.5364C21.3081 13.9725 21.9881 14.9933 21.9881 16.125C21.9881 16.5154 21.9911 16.906 21.9941 17.3009L21.9941 17.3025C21.997 17.6955 22 18.0931 22 18.4913C22 20.387 20.4999 22.1699 18.3975 21.9904C9.85772 21.2613 2.74005 14.1628 2.01192 5.60229ZM5.51161 3.99999C4.56806 3.99999 3.94287 4.70565 4.00472 5.43279C4.65016 13.0211 10.9966 19.3513 18.5676 19.9977C19.2944 20.0597 20 19.4349 20 18.4913C20 18.1013 19.9971 17.7109 19.9941 17.316L19.9941 17.3135C19.9911 16.9208 19.9881 16.5231 19.9881 16.125C19.9881 15.8002 19.7929 15.5072 19.4932 15.382L16.691 14.212C16.4138 14.0963 16.0952 14.1444 15.8646 14.337L13.0326 16.7019L12.4051 16.2603C10.5707 14.9694 8.9987 13.2704 7.86741 11.3384L7.51296 10.733L9.67483 8.13338C9.86626 7.9032 9.91417 7.58582 9.79923 7.30938L8.62943 4.49605C8.50455 4.1957 8.21122 3.99999 7.88594 3.99999H5.51161Z" fill="#000000"/>
</svg>