<?xml version="1.0" encoding="utf-8"?><!-- Uploaded to: SVG Repo, www.svgrepo.com, Generator: SVG Repo Mixer Tools -->
<svg width="800px" height="800px" viewBox="0 0 24 24" fill="none" xmlns="http://www.w3.org/2000/svg">
<path d="M22.7071 1.29289C23.0976 1.68342 23.0976 2.31658 22.7071 2.70711L19.8787 5.53552L22.7071 8.36396C23.0977 8.75449 23.0977 9.38765 22.7071 9.77817C22.3166 10.1687 21.6834 10.1687 21.2929 9.77817L18.4645 6.94974L15.636 9.77817C15.2455 10.1687 14.6123 10.1687 14.2218 9.77817C13.8313 9.38765 13.8313 8.75449 14.2218 8.36396L17.0503 5.53552L14.2218 2.70711C13.8313 2.31658 13.8313 1.68342 14.2218 1.29289C14.6124 0.902369 15.2455 0.902369 15.6361 1.29289L18.4645 4.12131L21.2929 1.29289C21.6834 0.902369 22.3166 0.902369 22.7071 1.29289Z" fill="#000000"/>
<path fill-rule="evenodd" clip-rule="evenodd" d="M2.01192 5.60227C1.83312 3.5002 3.61574 1.99997 5.51161 1.99997H7.88594C9.01915 1.99997 10.0411 2.68179 10.4762 3.72816L11.6459 6.54149C12.0464 7.50454 11.8795 8.61024 11.2126 9.41216L9.96021 10.9181C10.7683 12.1458 11.7862 13.2527 12.9455 14.169L14.5827 12.8018C15.386 12.131 16.4959 11.9632 17.4616 12.3664L20.2638 13.5364C21.3081 13.9724 21.9881 14.9933 21.9881 16.125C21.9881 16.5154 21.9911 16.906 21.9941 17.3009L21.9941 17.3024C21.997 17.6955 22 18.0931 22 18.4912C22 20.387 20.4999 22.1699 18.3975 21.9904C9.85772 21.2613 2.74005 14.1628 2.01192 5.60227ZM5.51161 3.99997C4.56806 3.99997 3.94287 4.70563 4.00472 5.43277C4.65016 13.0211 10.9966 19.3512 18.5676 19.9977C19.2944 20.0597 20 19.4349 20 18.4912C20 18.1012 19.9971 17.7108 19.9941 17.3159L19.9941 17.3134C19.9911 16.9208 19.9881 16.5231 19.9881 16.125C19.9881 15.8002 19.7929 15.5071 19.4932 15.382L16.691 14.212C16.4138 14.0962 16.0952 14.1444 15.8646 14.337L13.0326 16.7019L12.4051 16.2603C10.5707 14.9693 8.9987 13.2704 7.86741 11.3383L7.51296 10.733L9.67483 8.13336C9.86626 7.90318 9.91417 7.5858 9.79923 7.30936L8.62943 4.49603C8.50455 4.19568 8.21122 3.99997 7.88594 3.99997H5.51161Z" fill="#000000"/>
</svg>