<?xml version="1.0" encoding="utf-8"?><!-- Uploaded to: SVG Repo, www.svgrepo.com, Generator: SVG Repo Mixer Tools -->
<svg width="800px" height="800px" viewBox="0 0 24 24" fill="none" xmlns="http://www.w3.org/2000/svg">
<path fill-rule="evenodd" clip-rule="evenodd" d="M8.85989 16.5543L22.7071 2.70711C23.0976 2.31658 23.0976 1.68342 22.7071 1.29289C22.3166 0.902369 21.6834 0.902369 21.2929 1.29289L10.6777 11.9081C10.4233 11.5882 10.1836 11.2577 9.96008 10.9182L11.2125 9.41219C11.8793 8.61027 12.0463 7.50457 11.6458 6.54152L10.476 3.72819C10.0409 2.68182 9.01903 2 7.88582 2H5.51149C3.61562 2 1.833 3.50023 2.01179 5.6023C2.34716 9.54511 4.03721 13.1694 6.58283 16.003L1.29289 21.2929C0.902369 21.6834 0.902369 22.3166 1.29289 22.7071C1.68342 23.0976 2.31658 23.0976 2.70711 22.7071L8.51064 16.9036C8.58117 16.8616 8.64765 16.8102 8.70825 16.7494C8.76797 16.6895 8.81852 16.6239 8.85989 16.5543ZM7.99929 14.5865L9.25549 13.3303C8.74137 12.7026 8.27576 12.036 7.86729 11.3384L7.51284 10.733L9.67471 8.13339C9.86613 7.90321 9.91405 7.58583 9.79911 7.30939L8.62931 4.49606C8.50443 4.19571 8.21109 4 7.88582 4H5.51149C4.56794 4 3.94275 4.70566 4.0046 5.43279C4.29735 8.87463 5.76371 12.0659 7.99929 14.5865Z" fill="#000000"/>
<path d="M15.8645 14.337C16.0951 14.1444 16.4137 14.0963 16.6909 14.212L19.4931 15.382C19.7928 15.5072 19.988 15.8002 19.988 16.125C19.988 16.5239 19.991 16.9227 19.994 17.316C19.997 17.7109 19.9999 18.1013 19.9999 18.4913C19.9999 19.4349 19.2943 20.0597 18.5675 19.9977C16.0344 19.7814 13.6341 18.9287 11.5353 17.5984C11.0688 17.3027 10.451 17.4412 10.1553 17.9076C9.8596 18.3741 9.99805 18.9919 10.4645 19.2876C12.8184 20.7797 15.5253 21.7452 18.3974 21.9904C20.4997 22.1699 21.9999 20.387 21.9999 18.4913C21.9999 18.0931 21.9969 17.6957 21.9939 17.3026L21.9939 17.3009C21.991 16.906 21.988 16.5154 21.988 16.125C21.988 14.9933 21.308 13.9725 20.2637 13.5364L17.4615 12.3664C16.4957 11.9632 15.3859 12.1311 14.5826 12.8019L13.4611 13.7384C13.0371 14.0924 12.9805 14.723 13.3345 15.1469C13.6884 15.5709 14.3191 15.6275 14.743 15.2735L15.8645 14.337Z" fill="#000000"/>
</svg>