<?xml version="1.0" encoding="utf-8"?>
<!-- Uploaded to: SVG Repo, www.svgrepo.com, Generator: SVG Repo Mixer Tools -->
<svg width="800px" height="800px" viewBox="0 0 24 24" fill="none" xmlns="http://www.w3.org/2000/svg">
<g clip-path="url(#clip0_1332_146459)">
<path fill-rule="evenodd" clip-rule="evenodd" d="M23.7071 1.70711L19.9577 5.45649C19.8922 5.54884 19.8118 5.62876 19.7208 5.69346L7.20169 18.2125C7.15567 18.2774 7.10111 18.3377 7.03815 18.392C7.01426 18.4125 6.98968 18.4318 6.9645 18.4497L1.70711 23.7071C1.31658 24.0976 0.683417 24.0976 0.292893 23.7071C-0.0976311 23.3166 -0.0976311 22.6834 0.292893 22.2929L5.03504 17.5508C3.88679 16.0201 3 14.1457 3 12V5C3 4.45328 3.43875 4.00903 3.98335 4.00014L3.99011 3.99977C4.00499 3.9989 4.0385 3.99651 4.09269 3.99049C4.20126 3.97843 4.39127 3.95194 4.67888 3.89442C5.25494 3.77921 6.21419 3.54118 7.68377 3.05132C9.12034 2.57246 10.0531 2.10195 10.6105 1.76751C10.8893 1.60023 11.0748 1.46665 11.1829 1.38252C11.237 1.34044 11.2719 1.31064 11.2896 1.29508L11.3022 1.28374C11.6903 0.905419 12.3097 0.905419 12.6978 1.28374L12.6966 1.28263C12.6966 1.28263 12.6972 1.28313 12.6989 1.28483L12.6978 1.28374L12.7105 1.29508C12.7281 1.31064 12.763 1.34044 12.8171 1.38252C12.9252 1.46665 13.1107 1.60023 13.3895 1.76751C13.9469 2.10195 14.8797 2.57246 16.3162 3.05132C17.4121 3.41661 18.2242 3.64187 18.8052 3.78058L22.2929 0.292893C22.6834 -0.0976311 23.3166 -0.0976311 23.7071 0.292893C24.0976 0.683417 24.0976 1.31658 23.7071 1.70711ZM15.6838 4.94868C16.243 5.1351 16.7369 5.28838 17.1714 5.41442L6.46607 16.1197C5.58105 14.8739 5 13.4875 5 12V5.8696L5.07112 5.85558C5.74506 5.72079 6.78581 5.45882 8.31623 4.94868C9.87966 4.42754 10.9469 3.89805 11.6395 3.48249C11.7735 3.40211 11.8933 3.32603 12 3.25517C12.1067 3.32603 12.2265 3.40211 12.3605 3.48249C13.0531 3.89805 14.1203 4.42754 15.6838 4.94868Z" fill="#000000"/>
<path fill-rule="evenodd" clip-rule="evenodd" d="M21 9C21 8.44771 20.5523 8 20 8C19.4478 8 19 8.44771 19 9V12C19 14.5535 17.2818 16.7997 15.3415 18.4974C14.3924 19.3279 13.4386 19.9841 12.72 20.4332C12.4367 20.6103 12.1917 20.7541 12 20.8627C11.89 20.8003 11.7622 20.7263 11.6197 20.641C11.0968 20.3281 10.3799 19.8665 9.60864 19.2749C9.17041 18.9388 8.54268 19.0216 8.20657 19.4598C7.87045 19.8981 7.95323 20.5258 8.39146 20.8619C9.23657 21.5101 10.0197 22.0143 10.5927 22.3572C10.9765 22.5869 11.3452 22.7898 11.7613 22.9289C11.9164 22.9808 12.0841 22.983 12.2399 22.9329C12.7936 22.7549 13.2864 22.4377 13.78 22.1292C14.5615 21.6408 15.6077 20.9221 16.6585 20.0025C18.7183 18.2003 21 15.4464 21 12V9Z" fill="#000000"/>
</g>
<defs>
<clipPath id="clip0_1332_146459">
<rect width="24" height="24" fill="white"/>
</clipPath>
</defs>
</svg>