<?xml version="1.0" encoding="utf-8"?><!-- Uploaded to: SVG Repo, www.svgrepo.com, Generator: SVG Repo Mixer Tools -->
<svg width="800px" height="800px" viewBox="0 0 24 24" fill="none" xmlns="http://www.w3.org/2000/svg">
<path fill-rule="evenodd" clip-rule="evenodd" d="M10.5431 1.66549C11.4491 1.16212 12.5509 1.16212 13.4569 1.66549L21.4856 6.12589C21.8031 6.30225 22 6.63685 22 7C22 7.00002 22 6.99998 22 7V16.4116C22 17.1379 21.6062 17.8072 20.9713 18.1599L12.5015 22.8653C12.2067 23.0366 11.7933 23.0366 11.4985 22.8653L3.02871 18.1599C2.39378 17.8072 2 17.1379 2 16.4116V7.00005C2.00002 6.6369 2.19691 6.30225 2.51436 6.12589L10.5431 1.66549ZM12.4856 3.41381C12.1836 3.24602 11.8164 3.24602 11.5144 3.41381L9.55918 4.50002L16.5001 8.35606L18.9409 7.00005L12.4856 3.41381ZM5.05913 7.00005L7.50005 5.64397L14.4409 9.50002L12 10.8561L5.05913 7.00005ZM13 20.3005L20 16.4116V8.69956L13 12.5884V20.3005ZM4 8.69956L11 12.5884V20.3005L4 16.4116V8.69956Z" fill="#000000"/>
</svg>