<?xml version="1.0" encoding="utf-8"?><!-- Uploaded to: SVG Repo, www.svgrepo.com, Generator: SVG Repo Mixer Tools -->
<svg width="800px" height="800px" viewBox="0 0 24 24" fill="none" xmlns="http://www.w3.org/2000/svg">
<path d="M2 20C2 19.4477 2.44772 19 3 19H10C10.5523 19 11 19.4477 11 20C11 20.5523 10.5523 21 10 21H3C2.44772 21 2 20.5523 2 20Z" fill="#000000"/>
<path d="M15 19V17C15 16.4477 14.5523 16 14 16C13.4477 16 13 16.4477 13 17V23C13 23.5523 13.4477 24 14 24C14.5523 24 15 23.5523 15 23V21H21C21.5523 21 22 20.5523 22 20C22 19.4477 21.5523 19 21 19H15Z" fill="#000000"/>
<path d="M12 11C11.4477 11 11 11.4477 11 12C11 12.5523 11.4477 13 12 13L21 13C21.5523 13 22 12.5523 22 12C22 11.4477 21.5523 11 21 11L12 11Z" fill="#000000"/>
<path d="M2 12C2 11.4477 2.44772 11 3 11H7V9C7 8.44772 7.44772 8 8 8C8.55228 8 9 8.44772 9 9V15C9 15.5523 8.55228 16 8 16C7.44772 16 7 15.5523 7 15V13H3C2.44772 13 2 12.5523 2 12Z" fill="#000000"/>
<path d="M15 3V1C15 0.447716 14.5523 0 14 0C13.4477 0 13 0.447716 13 1V7C13 7.55228 13.4477 8 14 8C14.5523 8 15 7.55228 15 7V5H21C21.5523 5 22 4.55228 22 4C22 3.44772 21.5523 3 21 3H15Z" fill="#000000"/>
<path d="M2 4C2 4.55228 2.44772 5 3 5H10C10.5523 5 11 4.55228 11 4C11 3.44772 10.5523 3 10 3H3C2.44772 3 2 3.44772 2 4Z" fill="#000000"/>
</svg>