<?xml version="1.0" encoding="utf-8"?><!-- Uploaded to: SVG Repo, www.svgrepo.com, Generator: SVG Repo Mixer Tools -->
<svg width="800px" height="800px" viewBox="0 0 24 24" fill="none" xmlns="http://www.w3.org/2000/svg">
<path fill-rule="evenodd" clip-rule="evenodd" d="M11 4.63513L6.00618 9.17702C5.82209 9.34445 5.58219 9.43723 5.33334 9.43723H3L3.00001 14.6248H5.33334C5.58015 14.6248 5.81823 14.7161 6.00179 14.8811L11 19.3732V4.63513ZM12.1657 2.1443C12.8728 2.50027 13 3.2732 13 3.74466V20.2561C13 20.7286 12.8717 21.4999 12.1656 21.8555C11.416 22.2331 10.7175 21.8082 10.3623 21.4891L4.95001 16.6248H3.00001C1.89544 16.6248 1.00001 15.7294 1.00001 14.6248L1 9.43723C0.999998 8.33266 1.89543 7.43723 3 7.43723H4.94661L10.3623 2.51165C10.7163 2.1936 11.4151 1.76641 12.1657 2.1443Z" fill="#000000"/>
</svg>