<?xml version="1.0" encoding="utf-8"?><!-- Uploaded to: SVG Repo, www.svgrepo.com, Generator: SVG Repo Mixer Tools -->
<svg width="800px" height="800px" viewBox="0 0 24 24" fill="none" xmlns="http://www.w3.org/2000/svg">
<path fill-rule="evenodd" clip-rule="evenodd" d="M13 3.7446C13 3.27314 12.8728 2.50021 12.1657 2.14424C11.4151 1.76635 10.7163 2.19354 10.3623 2.51158L4.94661 7.43717H3C1.89543 7.43717 1 8.3326 1 9.43717L1.00001 14.6248C1.00001 15.7293 1.89544 16.6248 3.00001 16.6248H4.95001L10.3623 21.4891C10.7175 21.8081 11.416 22.2331 12.1656 21.8554C12.8717 21.4998 13 20.7286 13 20.2561V3.7446ZM6.00618 9.17696L11 4.63507V19.3731L6.00179 14.881C5.81823 14.716 5.58015 14.6248 5.33334 14.6248H3.00001L3 9.43717H5.33334C5.58219 9.43717 5.82209 9.34439 6.00618 9.17696Z" fill="#000000"/>
<path d="M16.2865 8.04192C15.7573 7.88372 15.2001 8.18443 15.0419 8.71357C14.8837 9.24271 15.1844 9.79992 15.7136 9.95812C16.3702 10.1544 17 10.9209 17 12C17 13.0791 16.3702 13.8456 15.7136 14.0419C15.1844 14.2001 14.8837 14.7573 15.0419 15.2865C15.2001 15.8156 15.7573 16.1163 16.2865 15.9581C17.9301 15.4667 19 13.8076 19 12C19 10.1924 17.9301 8.53333 16.2865 8.04192Z" fill="#000000"/>
</svg>