<?xml version="1.0" encoding="utf-8"?><!-- Uploaded to: SVG Repo, www.svgrepo.com, Generator: SVG Repo Mixer Tools -->
<svg width="800px" height="800px" viewBox="0 0 24 24" fill="none" xmlns="http://www.w3.org/2000/svg">
<path d="M8.49999 10C9.32842 10 9.99999 9.32844 9.99999 8.50001C9.99999 7.67159 9.32842 7.00001 8.49999 7.00001C7.67156 7.00001 6.99999 7.67159 6.99999 8.50001C6.99999 9.32844 7.67156 10 8.49999 10Z" fill="#000000"/>
<path fill-rule="evenodd" clip-rule="evenodd" d="M4.4497 1.94984C3.06898 1.94985 1.94969 3.06915 1.94971 4.44987L1.94978 12.0209C1.94979 12.8166 2.26586 13.5796 2.82846 14.1422L10.728 22.0417C12.2901 23.6038 14.8227 23.6038 16.3848 22.0417L22.0417 16.3849C23.6038 14.8228 23.6038 12.2901 22.0417 10.728L14.1422 2.82851C13.5796 2.2659 12.8165 1.94983 12.0209 1.94983L4.4497 1.94984ZM3.94971 4.44985C3.9497 4.17371 4.17356 3.94985 4.44971 3.94984L12.0209 3.94983C12.2861 3.94983 12.5404 4.05518 12.728 4.24272L20.6275 12.1422C21.4085 12.9233 21.4085 14.1896 20.6275 14.9706L14.9706 20.6275C14.1896 21.4085 12.9232 21.4085 12.1422 20.6275L4.24268 12.728C4.05514 12.5405 3.94979 12.2861 3.94978 12.0209L3.94971 4.44985Z" fill="#000000"/>
</svg>