<?xml version="1.0" encoding="utf-8"?><!-- Uploaded to: SVG Repo, www.svgrepo.com, Generator: SVG Repo Mixer Tools -->
<svg width="800px" height="800px" viewBox="0 0 24 24" fill="none" xmlns="http://www.w3.org/2000/svg">
<path fill-rule="evenodd" clip-rule="evenodd" d="M7.23607 3C6.09975 3 5.06096 3.64201 4.55279 4.65836L1 11.7639V17C1 19.2091 2.79086 21 5 21H19C21.2091 21 23 19.2091 23 17V11.7639L19.4472 4.65836C18.939 3.64201 17.9002 3 16.7639 3H7.23607ZM20.382 11L17.6584 5.55279C17.489 5.214 17.1427 5 16.7639 5H7.23607C6.8573 5 6.51103 5.214 6.34164 5.55279L3.61803 11H8C8.33435 11 8.64658 11.1671 8.83205 11.4453L10.5352 14H13.4648L15.1679 11.4453C15.3534 11.1671 15.6656 11 16 11H20.382ZM3 13V17C3 18.1046 3.89543 19 5 19H19C20.1046 19 21 18.1046 21 17V13H16.5352L14.8321 15.5547C14.6466 15.8329 14.3344 16 14 16H10C9.66565 16 9.35342 15.8329 9.16795 15.5547L7.46482 13H3Z" fill="#000000"/>
</svg>