<?xml version="1.0" encoding="utf-8"?><!-- Uploaded to: SVG Repo, www.svgrepo.com, Generator: SVG Repo Mixer Tools -->
<svg width="800px" height="800px" viewBox="0 0 24 24" fill="none" xmlns="http://www.w3.org/2000/svg">
<path fill-rule="evenodd" clip-rule="evenodd" d="M12 1C5.92487 1 1 5.92487 1 12C1 12.5523 1.44772 13 2 13H11V19C11 21.2091 12.7909 23 15 23C17.2091 23 19 21.2091 19 19C19 18.4477 18.5523 18 18 18C17.4477 18 17 18.4477 17 19C17 20.1046 16.1046 21 15 21C13.8954 21 13 20.1046 13 19V13H22C22.5523 13 23 12.5523 23 12C23 5.92487 18.0751 1 12 1ZM12 3C16.6326 3 20.4476 6.50005 20.9451 11H3.05493C3.55237 6.50005 7.36745 3 12 3Z" fill="#000000"/>
</svg>